# xmcd
#
# Track frame offsets:
#	150
#	10506
#	21956
#	34848
#	48080
#	61659
#	74000
#	87571
#	99010
#	114659
#	131256
#	149072
#	171857
#	182902
#	194113
#	210300
#	229547
#	243752
#	260617
#	273551
#
# Disc length: 3955 seconds
#
# Revision: 0
# Processed by: cddbd v1.5.2PL0 Copyright (c) Steve Scherf et al.
# Submitted via: dBpowerAMP V4.0
#
DISCID=190f7114
DTITLE=Various Artist - Best of SA Country Vol. 4 Disc 2
DYEAR=2008
DGENRE=Country
TTITLE0=Charlie Dicks - Medals for mothers
TTITLE1=Cobus Snyman - A thing called love
TTITLE2=Jeanette - Yodel just like me
TTITLE3=Tommy Oliver - I can't stop lovin' you
TTITLE4=Caroline du Preez - Delta dawn
TTITLE5=Charles Rudd - Who am I
TTITLE6=Joanna Field - Lord I hope this day is good
TTITLE7=Sez Adamson - You're still on my mind
TTITLE8=Kurt Darren - Jambalaya
TTITLE9=Andries Botha - 6345789
TTITLE10=J.J. Stevens - Ghost riders in the sky
TTITLE11=Ray Dylan - New kid in town
TTITLE12=Elze - Are you on the road to lovin' me again
TTITLE13=Jason Bradley - Chattahoochee
TTITLE14=Matt Hurter - Harmonica man
TTITLE15=Gene Rockwell - After all these years
TTITLE16=Lee Magnum - Going where the lonely go
TTITLE17=Arisia - Somebody should leave
TTITLE18=Big Ray Mckenzie - Cheating in the key of C
TTITLE19=Rockin' Horse - The bluest skies (will always be back home)
EXTD=
EXTT0=
EXTT1=
EXTT2=
EXTT3=
EXTT4=
EXTT5=
EXTT6=
EXTT7=
EXTT8=
EXTT9=
EXTT10=
EXTT11=
EXTT12=
EXTT13=
EXTT14=
EXTT15=
EXTT16=
EXTT17=
EXTT18=
EXTT19=
PLAYORDER=
